<svg xmlns="http://www.w3.org/2000/svg" viewBox="-40 -20 514 732">
  <rect x="-40" y="-20" width="514" height="732" fill="#020202"/>
  <g fill="#f2efea">
    <path d="M64,300 L64,153 A153,153 0 0 1 370,153 L370,252 L321,252 L321,153 A104,104 0 0 0 113,153 L113,265 Q113,300 64,300 Z"/>
    <path fill-rule="evenodd" d="M200,277 L434,277 L434,492 A200,200 0 0 1 234,692 L0,692 L0,477 A200,200 0 0 1 200,277 Z M201,339 L372,339 L372,493 A138,138 0 0 1 234,631 L63,631 L63,477 A138,138 0 0 1 201,339 Z M397,339 h13 a3,3 0 0 1 3,3 v21 a3,3 0 0 1 -3,3 h-13 a3,3 0 0 1 -3,-3 v-21 a3,3 0 0 1 3,-3 z M397,382.7 h13 a3,3 0 0 1 3,3 v21 a3,3 0 0 1 -3,3 h-13 a3,3 0 0 1 -3,-3 v-21 a3,3 0 0 1 3,-3 z M397,426.3 h13 a3,3 0 0 1 3,3 v21 a3,3 0 0 1 -3,3 h-13 a3,3 0 0 1 -3,-3 v-21 a3,3 0 0 1 3,-3 z M397,470 h13 a3,3 0 0 1 3,3 v21 a3,3 0 0 1 -3,3 h-13 a3,3 0 0 1 -3,-3 v-21 a3,3 0 0 1 3,-3 z M25,473 h13 a3,3 0 0 1 3,3 v21 a3,3 0 0 1 -3,3 h-13 a3,3 0 0 1 -3,-3 v-21 a3,3 0 0 1 3,-3 z M25,516.7 h13 a3,3 0 0 1 3,3 v21 a3,3 0 0 1 -3,3 h-13 a3,3 0 0 1 -3,-3 v-21 a3,3 0 0 1 3,-3 z M25,560.3 h13 a3,3 0 0 1 3,3 v21 a3,3 0 0 1 -3,3 h-13 a3,3 0 0 1 -3,-3 v-21 a3,3 0 0 1 3,-3 z M25,604 h13 a3,3 0 0 1 3,3 v21 a3,3 0 0 1 -3,3 h-13 a3,3 0 0 1 -3,-3 v-21 a3,3 0 0 1 3,-3 z M190,489 L175,568 L259,568 L244,489 A48.5,48.5 0 1 0 190,489 Z"/>
  </g>
</svg>
